<svg width="29" height="30" viewBox="0 0 29 30" fill="none" xmlns="http://www.w3.org/2000/svg">
<rect x="0.3" y="0.878857" width="28.4" height="28.4" rx="7.7" fill="#FFECEA"/>
<rect x="0.3" y="0.878857" width="28.4" height="28.4" rx="7.7" stroke="#0052A8" stroke-width="0.6"/>
<path d="M21 10.0789H17.875V8.82886C17.875 8.49734 17.7433 8.17939 17.5089 7.94497C17.2745 7.71055 16.9565 7.57886 16.625 7.57886H12.875C12.5435 7.57886 12.2255 7.71055 11.9911 7.94497C11.7567 8.17939 11.625 8.49734 11.625 8.82886V10.0789H8.5V11.3289H9.75V20.7039C9.75 21.2011 9.94754 21.6781 10.2992 22.0297C10.6508 22.3813 11.1277 22.5789 11.625 22.5789H17.875C18.3723 22.5789 18.8492 22.3813 19.2008 22.0297C19.5525 21.6781 19.75 21.2011 19.75 20.7039V11.3289H21V10.0789ZM12.875 8.82886H16.625V10.0789H12.875V8.82886ZM18.5 20.7039C18.5 20.8696 18.4342 21.0286 18.3169 21.1458C18.1997 21.263 18.0408 21.3289 17.875 21.3289H11.625C11.4592 21.3289 11.3003 21.263 11.1831 21.1458C11.0658 21.0286 11 20.8696 11 20.7039V11.3289H18.5V20.7039Z" fill="#0052A8"/>
<path d="M14.125 13.8289H12.875V18.8289H14.125V13.8289Z" fill="#0052A8"/>
<path d="M16.625 13.8289H15.375V18.8289H16.625V13.8289Z" fill="#0052A8"/>
</svg>
