<svg width="29" height="30" viewBox="0 0 29 30" fill="none" xmlns="http://www.w3.org/2000/svg">
<rect x="0.3" y="0.878857" width="28.4" height="28.4" rx="7.7" fill="#FFEAD8"/>
<rect x="0.3" y="0.878857" width="28.4" height="28.4" rx="7.7" stroke="#F2994A" stroke-width="0.6"/>
<path d="M18.66 8.16015L11.04 15.7801C10.749 16.0696 10.5182 16.4139 10.3612 16.7932C10.2041 17.1724 10.1239 17.579 10.125 17.9895V18.8289C10.125 18.9947 10.1909 19.1536 10.3081 19.2708C10.4253 19.388 10.5843 19.4539 10.75 19.4539H11.5894C11.9999 19.4551 12.4065 19.3748 12.7857 19.2177C13.165 19.0607 13.5093 18.8299 13.7988 18.5389L21.4188 10.9189C21.784 10.5528 21.9891 10.0567 21.9891 9.53953C21.9891 9.02235 21.784 8.5263 21.4188 8.16015C21.0473 7.80509 20.5532 7.60693 20.0394 7.60693C19.5255 7.60693 19.0315 7.80509 18.66 8.16015ZM20.535 10.0352L12.915 17.6551C12.5626 18.0054 12.0863 18.2026 11.5894 18.2039H11.375V17.9895C11.3763 17.4926 11.5735 17.0163 11.9238 16.6639L19.5438 9.0439C19.6772 8.91637 19.8548 8.84521 20.0394 8.84521C20.224 8.84521 20.4015 8.91637 20.535 9.0439C20.6662 9.17547 20.7399 9.35371 20.7399 9.53953C20.7399 9.72534 20.6662 9.90358 20.535 10.0352Z" fill="#0052A8"/>
<path d="M21.375 13.1907C21.2092 13.1907 21.0503 13.2566 20.933 13.3738C20.8158 13.491 20.75 13.65 20.75 13.8157V16.9538H18.25C17.7527 16.9538 17.2758 17.1514 16.9242 17.503C16.5725 17.8547 16.375 18.3316 16.375 18.8288V21.3288H10.125C9.62772 21.3288 9.1508 21.1313 8.79917 20.7797C8.44754 20.428 8.25 19.9511 8.25 19.4538V10.7039C8.25 10.2066 8.44754 9.72966 8.79917 9.37803C9.1508 9.0264 9.62772 8.82886 10.125 8.82886H15.7762C15.942 8.82886 16.101 8.76301 16.2182 8.6458C16.3354 8.52859 16.4012 8.36962 16.4012 8.20386C16.4012 8.0381 16.3354 7.87913 16.2182 7.76192C16.101 7.64471 15.942 7.57886 15.7762 7.57886H10.125C9.2965 7.57985 8.50222 7.90941 7.91639 8.49524C7.33055 9.08108 7.00099 9.87536 7 10.7039L7 19.4538C7.00099 20.2823 7.33055 21.0766 7.91639 21.6625C8.50222 22.2483 9.2965 22.5779 10.125 22.5788H17.2144C17.6249 22.58 18.0317 22.4998 18.411 22.3427C18.7904 22.1856 19.1348 21.9549 19.4244 21.6638L21.0844 20.0026C21.3755 19.7131 21.6063 19.3688 21.7634 18.9896C21.9206 18.6104 22.001 18.2037 22 17.7932V13.8157C22 13.65 21.9341 13.491 21.8169 13.3738C21.6997 13.2566 21.5407 13.1907 21.375 13.1907ZM18.5406 20.7801C18.2894 21.0307 17.9717 21.2042 17.625 21.2801V18.8288C17.625 18.6631 17.6908 18.5041 17.808 18.3869C17.9253 18.2697 18.0842 18.2038 18.25 18.2038H20.7031C20.6258 18.5498 20.4525 18.8669 20.2031 19.1188L18.5406 20.7801Z" fill="#0052A8"/>
</svg>
