<svg width="29" height="30" viewBox="0 0 29 30" fill="none" xmlns="http://www.w3.org/2000/svg">
<rect x="0.3" y="0.878857" width="28.4" height="28.4" rx="7.7" fill="#ECFFFA"/>
<rect x="0.3" y="0.878857" width="28.4" height="28.4" rx="7.7" stroke="#0052A8" stroke-width="0.6"/>
<path d="M5.5 15.4347C5.6923 15.154 5.86429 14.8568 6.07974 14.5951C7.24158 13.1824 8.59951 12.003 10.2409 11.1724C11.3612 10.6054 12.5424 10.244 13.7959 10.1249C16.2311 9.89386 18.4338 10.5402 20.4509 11.8859C21.7606 12.7595 22.852 13.8608 23.8041 15.1068C24.0389 15.4139 24.0394 15.747 23.8055 16.0532C22.7075 17.491 21.4247 18.727 19.8565 19.6474C18.56 20.4086 17.1709 20.8919 15.6674 21.0341C13.4793 21.2411 11.4585 20.7322 9.5785 19.62C8.02402 18.7005 6.75398 17.4678 5.66679 16.0376C5.59591 15.9445 5.55481 15.8288 5.5 15.7234C5.5 15.627 5.5 15.5311 5.5 15.4347ZM14.6124 11.6992C12.5041 11.7394 10.8188 13.5329 10.8566 15.696C10.8934 17.8127 12.6903 19.4995 14.8642 19.4589C16.9653 19.4192 18.662 17.6138 18.6219 15.4607C18.5827 13.3421 16.7872 11.6581 14.6124 11.6992Z" fill="#0052A8"/>
<path d="M16.8316 15.5831C16.8236 16.7416 15.8635 17.6809 14.7003 17.6691C13.5668 17.6573 12.6426 16.7081 12.6492 15.5618C12.6558 14.4099 13.6221 13.4739 14.791 13.4862C15.9155 13.4985 16.8397 14.4477 16.8316 15.5831Z" fill="#0052A8"/>
</svg>
