<svg width="98" height="24" viewBox="0 0 98 24" fill="none" xmlns="http://www.w3.org/2000/svg">
<g clip-path="url(#clip0_6231_1320)">
<path d="M30.627 18.5235V7.96021H34.2162C37.4902 7.96021 39.6002 10.2571 39.6002 13.2503C39.6002 16.2434 37.4902 18.5235 34.2162 18.5235H30.627ZM38.2458 13.2503C38.2458 10.9702 36.8131 9.13307 34.2144 9.13307H31.931V17.3525H34.2144C36.7646 17.3525 38.2458 15.5153 38.2458 13.2503Z" fill="#0E4946"/>
<path d="M40.9082 13.2502C40.9082 10.1295 43.0181 7.78564 46.1186 7.78564C49.2192 7.78564 51.3459 10.1295 51.3459 13.2502C51.3459 16.371 49.221 18.7148 46.1186 18.7148C43.0163 18.7148 40.9082 16.371 40.9082 13.2502ZM49.9915 13.2502C49.9915 10.7788 48.4636 8.95851 46.1186 8.95851C43.7737 8.95851 42.2607 10.7807 42.2607 13.2502C42.2607 15.7198 43.7569 17.542 46.1186 17.542C48.4804 17.542 49.9915 15.7048 49.9915 13.2502Z" fill="#0E4946"/>
<path d="M52.6367 13.2502C52.6367 10.0038 55.0134 7.78564 58.0374 7.78564C59.8955 7.78564 61.1864 8.67327 62.0203 9.87615L60.9346 10.4935C60.3358 9.59091 59.2332 8.95663 58.0374 8.95663C55.7391 8.95663 53.9911 10.715 53.9911 13.2484C53.9911 15.7817 55.7391 17.5401 58.0374 17.5401C59.2332 17.5401 60.3358 16.8908 60.9346 16.0032L62.0371 16.6056C61.1547 17.8253 59.8955 18.7111 58.0374 18.7111C55.0153 18.7111 52.6367 16.493 52.6367 13.2465V13.2502Z" fill="#0E4946"/>
<path d="M65.9885 18.5235V9.13117H62.666V7.95831H70.6337V9.13117H67.2963V18.5235H65.9904H65.9885Z" fill="#0E4946"/>
<path d="M72.0488 18.5235V7.96027H78.9289V9.13313H73.3547V12.5372H78.8188V13.7101H73.3547V17.3525H78.9289V18.5254H72.0488V18.5235Z" fill="#0E4946"/>
<path d="M80.5185 18.5235V7.96027H81.8243V17.3525H86.7046V18.5254H80.5166L80.5185 18.5235Z" fill="#0E4946"/>
<path d="M19.0721 14.8247H13.7404C12.996 14.8247 12.3916 14.2167 12.3916 13.4679V4.43031C12.3916 3.68156 12.996 3.07355 13.7404 3.07355H19.0721C19.8164 3.07355 20.4209 3.68156 20.4209 4.43031V13.4679C20.4209 14.2167 19.8164 14.8247 19.0721 14.8247ZM13.7385 3.99307C13.4979 3.99307 13.302 4.19011 13.302 4.43031V13.4679C13.302 13.71 13.4979 13.9052 13.7385 13.9052H19.0702C19.3109 13.9052 19.5067 13.7081 19.5067 13.4679V4.43031C19.5067 4.18824 19.3109 3.99307 19.0702 3.99307H13.7385Z" fill="#0E4946"/>
<path d="M17.8052 5.18849H15.005C14.9621 5.18849 14.9248 5.15283 14.9248 5.10779C14.9248 5.06275 14.9602 5.0271 15.005 5.0271H17.8052C17.8481 5.0271 17.8854 5.06275 17.8854 5.10779C17.8854 5.15283 17.85 5.18849 17.8052 5.18849Z" fill="#0E4946"/>
<path d="M16.4041 13.2371C16.6019 13.2371 16.7623 13.0758 16.7623 12.8768C16.7623 12.6779 16.6019 12.5165 16.4041 12.5165C16.2063 12.5165 16.0459 12.6779 16.0459 12.8768C16.0459 13.0758 16.2063 13.2371 16.4041 13.2371Z" fill="#0E4946"/>
<path d="M19.0718 21.4265H13.7401C12.9957 21.4265 12.3913 20.8185 12.3913 20.0697V17.0071C12.3913 16.765 12.1954 16.568 11.9548 16.568H8.90835C8.164 16.568 7.55957 15.96 7.55957 15.2112V9.84798C7.55957 9.09922 8.164 8.49121 8.90835 8.49121H11.4399V9.41073H8.90835C8.6677 9.41073 8.47182 9.60777 8.47182 9.84798V15.2112C8.47182 15.4533 8.6677 15.6485 8.90835 15.6485H11.9529C12.6972 15.6485 13.3017 16.2565 13.3017 17.0052V20.0678C13.3017 20.3099 13.4976 20.5051 13.7382 20.5051H19.0699C19.3106 20.5051 19.5064 20.308 19.5064 20.0678V17.0052C19.5064 16.2565 20.1109 15.6485 20.8552 15.6485H23.8998C24.1404 15.6485 24.3363 15.4514 24.3363 15.2112V9.84798C24.3363 9.6059 24.1404 9.41073 23.8998 9.41073H21.316V8.49121H23.8998C24.6441 8.49121 25.2485 9.09922 25.2485 9.84798V15.2112C25.2485 15.96 24.6441 16.568 23.8998 16.568H20.8552C20.6146 16.568 20.4187 16.765 20.4187 17.0071V20.0697C20.4187 20.8185 19.8142 21.4265 19.0699 21.4265H19.0718Z" fill="#0E4946"/>
</g>
<defs>
<clipPath id="clip0_6231_1320">
<rect width="79.1471" height="18.3529" fill="white" transform="translate(7.26562 3.29425)"/>
</clipPath>
</defs>
</svg>
