<svg width="596" height="84" viewBox="0 0 596 84" fill="none" xmlns="http://www.w3.org/2000/svg">
<path opacity="0.7" d="M618.81 165.69L-11.9404 165.69C-11.9404 121.929 5.44346 79.9608 36.387 49.0173C67.3305 18.0738 109.299 0.690002 153.06 0.690002L453.77 0.690002C497.53 0.690002 539.499 18.0738 570.442 49.0173C601.386 79.9608 618.77 121.929 618.77 165.69H618.81Z" fill="url(#paint0_linear_4047_1354)"/>
<path d="M613.02 186.29L-17.7205 186.29C-17.7205 142.529 -0.336569 100.561 30.6069 69.6174C61.5504 38.6739 103.519 21.29 147.28 21.29L447.98 21.29C491.74 21.29 533.709 38.6739 564.652 69.6174C595.596 100.561 612.98 142.529 612.98 186.29H613.02Z" fill="#00ACE6"/>
<defs>
<linearGradient id="paint0_linear_4047_1354" x1="618.81" y1="83.17" x2="-11.9404" y2="83.17" gradientUnits="userSpaceOnUse">
<stop stop-color="#E4E6EB"/>
<stop offset="1" stop-color="#E4E6EB" stop-opacity="0"/>
</linearGradient>
</defs>
</svg>
