<svg width="596" height="136" viewBox="0 0 596 136" fill="none" xmlns="http://www.w3.org/2000/svg">
<path opacity="0.7" d="M-71.3398 -19.39H660.41C660.411 0.907936 656.415 21.0074 648.648 39.7606C640.881 58.5138 629.497 75.5536 615.144 89.9069C600.792 104.26 583.753 115.646 565 123.414C546.247 131.182 526.148 135.18 505.85 135.18H83.2202C62.9222 135.18 42.823 131.182 24.0703 123.414C5.31755 115.646 -11.7215 104.26 -26.0738 89.9069C-40.4262 75.5536 -51.8108 58.5138 -59.5775 39.7606C-67.3443 21.0074 -71.3412 0.907936 -71.3398 -19.39Z" fill="url(#paint0_linear_4047_1353)"/>
<path d="M474 119.21H123.42C38.0603 119.21 -31.1396 105.82 -31.1396 20.46V-3.53998H628.6V20.46C628.6 105.82 559.4 119.21 474 119.21Z" fill="#00ACE6"/>
<mask id="mask0_4047_1353" style="mask-type:luminance" maskUnits="userSpaceOnUse" x="-32" y="0" width="661" height="123">
<path d="M474 122.74H123.42C38.0603 122.74 -31.1396 109.35 -31.1396 24V0H628.6V24C628.6 109.35 559.4 122.74 474 122.74Z" fill="white"/>
</mask>
<g mask="url(#mask0_4047_1353)">
<path opacity="0.41" d="M552.561 -1.15998V22.84C552.561 -31.26 551.001 -29.87 549.081 -29.87H522.291C521.416 -29.9137 520.56 -29.6104 519.909 -29.0261C519.257 -28.4418 518.862 -27.6238 518.811 -26.75V-12.83C518.862 -11.957 519.257 -11.14 519.909 -10.5573C520.561 -9.97455 521.417 -9.67354 522.291 -9.71998H549.081C549.954 -9.76641 550.81 -9.4654 551.462 -8.88269C552.114 -8.29998 552.509 -7.48293 552.561 -6.60998V17.39C552.615 18.2539 553.005 19.0622 553.648 19.6417C554.291 20.2212 555.136 20.5257 556.001 20.49H571.551C572.423 20.5338 573.278 20.2319 573.929 19.6497C574.581 19.0675 574.976 18.252 575.031 17.38V-6.61998C575.08 -7.49205 575.472 -8.30911 576.123 -8.89207C576.773 -9.47504 577.628 -9.77635 578.501 -9.72998H605.301C606.174 -9.68354 607.03 -9.98455 607.682 -10.5673C608.334 -11.15 608.729 -11.967 608.781 -12.84V-26.76C608.729 -27.6338 608.334 -28.4518 607.683 -29.0361C607.031 -29.6204 606.175 -29.9237 605.301 -29.88H578.501C576.581 -29.88 575.031 -31.27 575.031 22.83V-1.16998C575.031 -58.71 573.471 -60.1 571.551 -60.1H556.001C554.121 -60.09 552.561 -58.7 552.561 -1.15998Z" fill="white"/>
<path opacity="0.24" d="M68.6904 75.42V82.91C68.6908 83.0484 68.6626 83.1853 68.6074 83.3121C68.5522 83.439 68.4713 83.553 68.3698 83.647C68.2683 83.741 68.1484 83.8129 68.0177 83.8581C67.887 83.9034 67.7483 83.9211 67.6104 83.91H59.2304C59.0925 83.899 58.9538 83.9166 58.8231 83.9619C58.6924 84.0072 58.5725 84.0791 58.471 84.173C58.3695 84.267 58.2886 84.3811 58.2334 84.5079C58.1782 84.6348 58.15 84.7717 58.1504 84.91V89.26C58.15 89.3984 58.1782 89.5353 58.2334 89.6621C58.2886 89.789 58.3695 89.903 58.471 89.997C58.5725 90.091 58.6924 90.1629 58.8231 90.2081C58.9538 90.2534 59.0925 90.2711 59.2304 90.26H67.6104C67.7483 90.2489 67.887 90.2666 68.0177 90.3119C68.1484 90.3572 68.2683 90.4291 68.3698 90.523C68.4713 90.617 68.5522 90.7311 68.6074 90.8579C68.6626 90.9848 68.6908 91.1217 68.6904 91.26V98.76C68.6898 98.8993 68.7184 99.0371 68.7741 99.1647C68.8299 99.2923 68.9117 99.4068 69.0144 99.5009C69.117 99.5951 69.2381 99.6668 69.37 99.7114C69.5019 99.756 69.6417 99.7726 69.7804 99.76H74.6404C74.7783 99.7711 74.917 99.7534 75.0477 99.7081C75.1784 99.6629 75.2983 99.591 75.3998 99.497C75.5013 99.403 75.5822 99.289 75.6374 99.1621C75.6926 99.0353 75.7208 98.8984 75.7204 98.76V91.26C75.7198 91.1208 75.7483 90.9829 75.8041 90.8553C75.8599 90.7278 75.9417 90.6132 76.0444 90.5191C76.147 90.4249 76.2681 90.3533 76.4 90.3087C76.5319 90.2641 76.6717 90.2475 76.8104 90.26H85.1804C85.3191 90.2726 85.4589 90.256 85.5908 90.2114C85.7227 90.1668 85.8438 90.0951 85.9464 90.0009C86.049 89.9068 86.1309 89.7923 86.1867 89.6647C86.2424 89.5371 86.271 89.3993 86.2704 89.26V84.86C86.271 84.7208 86.2424 84.5829 86.1867 84.4553C86.1309 84.3278 86.049 84.2132 85.9464 84.1191C85.8438 84.0249 85.7227 83.9533 85.5908 83.9087C85.4589 83.864 85.3191 83.8475 85.1804 83.86H76.8104C76.6717 83.8725 76.5319 83.856 76.4 83.8114C76.2681 83.7668 76.147 83.6951 76.0444 83.6009C75.9417 83.5068 75.8599 83.3923 75.8041 83.2647C75.7483 83.1371 75.7198 82.9993 75.7204 82.86V75.42C75.7208 75.2817 75.6926 75.1448 75.6374 75.0179C75.5822 74.8911 75.5013 74.777 75.3998 74.6831C75.2983 74.5891 75.1784 74.5172 75.0477 74.4719C74.917 74.4266 74.7783 74.4089 74.6404 74.42H69.7804C69.6417 74.4075 69.5019 74.4241 69.37 74.4687C69.2381 74.5133 69.117 74.5849 69.0144 74.6791C68.9117 74.7732 68.8299 74.8878 68.7741 75.0153C68.7184 75.1429 68.6898 75.2808 68.6904 75.42Z" fill="white"/>
<path opacity="0.16" d="M112.931 -14.28V-2.75996C112.919 -2.55236 112.867 -2.34907 112.777 -2.16174C112.686 -1.97441 112.56 -1.80673 112.405 -1.6683C112.25 -1.52988 112.069 -1.42344 111.873 -1.35508C111.676 -1.28673 111.468 -1.2578 111.261 -1.26996H98.3907C97.9705 -1.29178 97.5588 -1.14615 97.2458 -0.864997C96.9328 -0.58384 96.744 -0.190073 96.7207 0.230036V6.91004C96.744 7.33014 96.9328 7.72391 97.2458 8.00507C97.5588 8.28623 97.9705 8.43185 98.3907 8.41004H111.261C111.468 8.39787 111.676 8.4268 111.873 8.49516C112.069 8.56351 112.25 8.66995 112.405 8.80837C112.56 8.9468 112.686 9.11448 112.777 9.30181C112.867 9.48914 112.919 9.69243 112.931 9.90004V21.43C112.956 21.8484 113.146 22.2396 113.459 22.5186C113.772 22.7977 114.182 22.9419 114.601 22.92H122.071C122.489 22.9419 122.9 22.7977 123.212 22.5186C123.525 22.2396 123.715 21.8484 123.741 21.43V9.90004C123.752 9.69243 123.805 9.48914 123.895 9.30181C123.985 9.11448 124.111 8.9468 124.266 8.80837C124.422 8.66995 124.602 8.56351 124.799 8.49516C124.995 8.4268 125.203 8.39787 125.411 8.41004H138.281C138.488 8.42081 138.696 8.39053 138.892 8.32094C139.088 8.25134 139.268 8.14379 139.422 8.00446C139.576 7.86512 139.701 7.69673 139.79 7.50893C139.879 7.32113 139.93 7.11761 139.941 6.91004V0.230036C139.93 0.022459 139.879 -0.181057 139.79 -0.368856C139.701 -0.556655 139.576 -0.725047 139.422 -0.864386C139.268 -1.00372 139.088 -1.11127 138.892 -1.18087C138.696 -1.25046 138.488 -1.28074 138.281 -1.26996H125.411C125.203 -1.2578 124.995 -1.28673 124.799 -1.35508C124.602 -1.42344 124.422 -1.52988 124.266 -1.6683C124.111 -1.80673 123.985 -1.97441 123.895 -2.16174C123.805 -2.34907 123.752 -2.55236 123.741 -2.75996V-14.28C123.717 -14.7001 123.529 -15.0938 123.216 -15.375C122.903 -15.6562 122.491 -15.8018 122.071 -15.78H114.601C114.181 -15.8018 113.769 -15.6562 113.456 -15.375C113.143 -15.0938 112.954 -14.7001 112.931 -14.28Z" fill="white"/>
<path opacity="0.62" d="M557.74 48.2V61.2C557.712 61.6714 557.499 62.1125 557.146 62.4272C556.794 62.7419 556.332 62.9046 555.86 62.88H541.401C540.93 62.8527 540.468 63.0132 540.115 63.3263C539.763 63.6393 539.549 64.0795 539.521 64.55V72C539.549 72.4714 539.762 72.9125 540.115 73.2272C540.467 73.5419 540.929 73.7046 541.401 73.68H555.86C556.332 73.6554 556.794 73.8182 557.146 74.1329C557.499 74.4476 557.712 74.8886 557.74 75.36V88.36C557.776 88.8234 557.992 89.2544 558.341 89.5608C558.691 89.8673 559.146 90.0249 559.61 90H568C568.471 90.0246 568.932 89.8615 569.283 89.5466C569.633 89.2316 569.845 88.7906 569.87 88.32V75.32C569.899 74.8486 570.112 74.4076 570.465 74.0929C570.817 73.7782 571.279 73.6154 571.75 73.64H586.211C586.677 73.6677 587.136 73.5116 587.49 73.2052C587.843 72.8987 588.062 72.4661 588.1 72V64.51C588.072 64.0395 587.858 63.5993 587.506 63.2863C587.153 62.9732 586.691 62.8127 586.22 62.84H571.76C571.289 62.8646 570.827 62.7019 570.475 62.3872C570.122 62.0725 569.909 61.6314 569.88 61.16V48.16C569.842 47.6958 569.624 47.2648 569.273 46.9586C568.922 46.6523 568.466 46.495 568 46.52H559.6C559.132 46.5009 558.675 46.6661 558.327 46.9802C557.98 47.2943 557.769 47.7323 557.74 48.2Z" fill="white"/>
<path opacity="0.62" d="M482.291 1.31004V5.67004C482.278 5.82833 482.204 5.97538 482.085 6.07996C481.965 6.18453 481.81 6.23837 481.651 6.23004H476.791C476.712 6.226 476.633 6.23755 476.559 6.26403C476.485 6.29051 476.416 6.33139 476.358 6.38434C476.299 6.43728 476.252 6.50126 476.218 6.57259C476.184 6.64393 476.165 6.72122 476.161 6.80004V9.32004C476.165 9.39887 476.184 9.47616 476.218 9.5475C476.252 9.61883 476.299 9.68281 476.358 9.73575C476.416 9.7887 476.485 9.82958 476.559 9.85606C476.633 9.88254 476.712 9.89408 476.791 9.89005H481.651C481.81 9.88172 481.965 9.93556 482.085 10.0401C482.204 10.1447 482.278 10.2918 482.291 10.45V14.81C482.295 14.8889 482.314 14.9662 482.348 15.0375C482.382 15.1088 482.429 15.1728 482.488 15.2258C482.546 15.2787 482.615 15.3196 482.689 15.3461C482.763 15.3725 482.842 15.3841 482.921 15.38H485.741C485.82 15.3841 485.899 15.3725 485.973 15.3461C486.047 15.3196 486.116 15.2787 486.174 15.2258C486.233 15.1728 486.28 15.1088 486.314 15.0375C486.348 14.9662 486.367 14.8889 486.371 14.81V10.45C486.381 10.2926 486.453 10.1456 486.571 10.0408C486.689 9.93597 486.844 9.88182 487.001 9.89005H491.871C491.95 9.89408 492.029 9.88254 492.103 9.85606C492.177 9.82958 492.246 9.7887 492.304 9.73575C492.363 9.68281 492.41 9.61883 492.444 9.5475C492.478 9.47616 492.497 9.39887 492.501 9.32004V6.80004C492.497 6.72122 492.478 6.64393 492.444 6.57259C492.41 6.50126 492.363 6.43728 492.304 6.38434C492.246 6.33139 492.177 6.29051 492.103 6.26403C492.029 6.23755 491.95 6.226 491.871 6.23004H487.001C486.844 6.23827 486.689 6.18412 486.571 6.07931C486.453 5.9745 486.381 5.82747 486.371 5.67004V1.31004C486.367 1.23122 486.348 1.15393 486.314 1.08259C486.28 1.01126 486.233 0.947284 486.174 0.894336C486.116 0.841388 486.047 0.800506 485.973 0.77403C485.899 0.747554 485.82 0.736005 485.741 0.740044H482.921C482.842 0.736005 482.763 0.747554 482.689 0.77403C482.615 0.800506 482.546 0.841388 482.488 0.894336C482.429 0.947284 482.382 1.01126 482.348 1.08259C482.314 1.15393 482.295 1.23122 482.291 1.31004Z" fill="white"/>
<path opacity="0.62" d="M522.411 8.00002V15C522.388 15.2493 522.273 15.4811 522.088 15.6496C521.903 15.8181 521.661 15.911 521.411 15.91H513.591C513.34 15.909 513.099 16.0019 512.914 16.1704C512.729 16.3389 512.613 16.5707 512.591 16.82V20.88C512.613 21.1293 512.729 21.3611 512.914 21.5296C513.099 21.6981 513.34 21.791 513.591 21.79H521.411C521.661 21.789 521.903 21.8819 522.088 22.0504C522.273 22.2189 522.388 22.4507 522.411 22.7V29.7C522.433 29.9493 522.549 30.1811 522.734 30.3496C522.919 30.5181 523.16 30.611 523.411 30.61H528.001C528.251 30.611 528.493 30.5181 528.678 30.3496C528.863 30.1811 528.978 29.9493 529.001 29.7V22.7C529.023 22.4507 529.139 22.2189 529.324 22.0504C529.509 21.8819 529.75 21.789 530.001 21.79H537.821C538.071 21.791 538.313 21.6981 538.498 21.5296C538.683 21.3611 538.798 21.1293 538.821 20.88V16.86C538.798 16.6107 538.683 16.3789 538.498 16.2104C538.313 16.0419 538.071 15.949 537.821 15.95H530.001C529.75 15.951 529.509 15.8581 529.324 15.6896C529.139 15.5211 529.023 15.2893 529.001 15.04V8.00002C528.978 7.7507 528.863 7.51889 528.678 7.3504C528.493 7.18192 528.251 7.089 528.001 7.09002H523.461C523.202 7.07604 522.948 7.16311 522.752 7.33287C522.556 7.50264 522.434 7.74183 522.411 8.00002Z" fill="white"/>
<path opacity="0.62" d="M72.271 25.4501V-20.95C72.2503 -20.6086 72.096 -20.2891 71.8414 -20.0608C71.5869 -19.8324 71.2526 -19.7135 70.911 -19.7299H60.401C60.2286 -19.7435 60.0552 -19.7226 59.891 -19.6684C59.7268 -19.6141 59.5751 -19.5277 59.4447 -19.4141C59.3143 -19.3004 59.2079 -19.162 59.1317 -19.0067C59.0555 -18.8515 59.0111 -18.6826 59.001 -18.51V-13C59.0216 -12.6568 59.1773 -12.3357 59.4341 -12.1071C59.6908 -11.8784 60.0277 -11.7608 60.371 -11.78H70.911C71.2542 -11.7963 71.5899 -11.6761 71.8448 -11.4456C72.0996 -11.2151 72.2529 -10.8931 72.271 -10.55V-1.13995C72.3111 -0.811159 72.4753 -0.510094 72.7299 -0.298227C72.9845 -0.0863604 73.3104 0.020327 73.641 4.95911e-05H79.741C80.0777 0.0167854 80.4078 -0.0979701 80.6616 -0.319998C80.9153 -0.542025 81.0729 -0.853956 81.101 -1.18995V-10.6C81.1191 -10.9431 81.2723 -11.2651 81.5272 -11.4956C81.782 -11.7261 82.1177 -11.8463 82.461 -11.83H93.001C93.3318 -11.8157 93.6555 -11.9292 93.9049 -12.147C94.1543 -12.3648 94.3105 -12.6702 94.341 -13V-18.4599C94.3371 -18.6315 94.2993 -18.8007 94.2297 -18.9576C94.1601 -19.1145 94.0601 -19.2561 93.9356 -19.3741C93.811 -19.4922 93.6643 -19.5844 93.5039 -19.6455C93.3435 -19.7066 93.1725 -19.7353 93.001 -19.7299H82.461C82.1194 -19.7135 81.7851 -19.8324 81.5305 -20.0608C81.276 -20.2891 81.1216 -20.6086 81.101 -20.95V25.4501C81.0803 25.1087 80.926 24.7892 80.6714 24.5609C80.4169 24.3325 80.0826 24.2136 79.741 24.23H73.641C73.2977 24.2109 72.9608 24.3285 72.7041 24.5572C72.4473 24.7858 72.2916 25.1069 72.271 25.4501Z" fill="white"/>
<path opacity="0.21" d="M147.841 90.24V101C147.83 101.194 147.782 101.385 147.698 101.561C147.614 101.736 147.496 101.894 147.351 102.024C147.206 102.154 147.037 102.254 146.853 102.319C146.67 102.383 146.475 102.411 146.281 102.4H134.281C134.086 102.389 133.892 102.417 133.708 102.481C133.524 102.546 133.355 102.646 133.21 102.776C133.065 102.906 132.947 103.064 132.863 103.239C132.779 103.415 132.731 103.606 132.721 103.8V110.05C132.744 110.441 132.921 110.807 133.214 111.067C133.506 111.328 133.89 111.462 134.281 111.44H146.281C146.475 111.429 146.67 111.457 146.853 111.521C147.037 111.586 147.206 111.686 147.351 111.816C147.496 111.946 147.614 112.104 147.698 112.279C147.782 112.455 147.83 112.646 147.841 112.84V123.61C147.851 123.804 147.899 123.995 147.983 124.171C148.067 124.346 148.185 124.504 148.33 124.634C148.475 124.764 148.644 124.864 148.828 124.929C149.012 124.993 149.206 125.021 149.401 125.01H156.401C156.595 125.021 156.79 124.993 156.973 124.929C157.157 124.864 157.326 124.764 157.471 124.634C157.616 124.504 157.734 124.346 157.818 124.171C157.902 123.995 157.95 123.804 157.961 123.61V112.85C157.971 112.656 158.019 112.465 158.103 112.289C158.187 112.114 158.305 111.956 158.45 111.826C158.595 111.696 158.764 111.596 158.948 111.531C159.132 111.467 159.326 111.439 159.521 111.45H171.521C171.912 111.472 172.295 111.338 172.588 111.077C172.88 110.817 173.057 110.451 173.081 110.06V103.81C173.07 103.616 173.022 103.425 172.938 103.249C172.854 103.074 172.736 102.916 172.591 102.786C172.446 102.656 172.277 102.556 172.093 102.491C171.91 102.427 171.715 102.399 171.521 102.41H159.521C159.133 102.421 158.757 102.279 158.473 102.016C158.188 101.752 158.019 101.387 158.001 101V90.24C157.977 89.8482 157.801 89.4814 157.508 89.2193C157.216 88.9572 156.833 88.8209 156.441 88.84H149.441C149.243 88.8251 149.045 88.8496 148.857 88.9122C148.669 88.9747 148.496 89.0741 148.347 89.2044C148.198 89.3347 148.077 89.4935 147.99 89.6713C147.903 89.8491 147.852 90.0424 147.841 90.24Z" fill="white"/>
<path opacity="0.46" d="M11.4007 -18.1V9.00003C11.3719 9.95848 10.9641 10.8664 10.2667 11.5244C9.56923 12.1825 8.6392 12.5369 7.6807 12.51H-21.0593C-21.5347 12.4967 -22.0081 12.5772 -22.4524 12.7469C-22.8967 12.9167 -23.3032 13.1723 -23.6487 13.4992C-23.9942 13.8261 -24.2718 14.2178 -24.4658 14.6521C-24.6598 15.0864 -24.7663 15.5546 -24.7793 16.03V31.82C-24.7505 32.7785 -24.3427 33.6864 -23.6453 34.3444C-22.9478 35.0025 -22.0178 35.3569 -21.0593 35.33H7.6807C8.64015 35.3058 9.57015 35.6625 10.2673 36.3222C10.9644 36.9818 11.3719 37.8907 11.4007 38.85V66C11.4149 66.4755 11.5227 66.9435 11.7179 67.3772C11.9131 67.811 12.1919 68.2021 12.5383 68.528C12.8847 68.854 13.2919 69.1085 13.7368 69.277C14.1816 69.4455 14.6553 69.5247 15.1307 69.51H31.8007C32.7592 69.537 33.6892 69.1825 34.3867 68.5244C35.0841 67.8664 35.4919 66.9585 35.5207 66V38.85C35.5495 37.8889 35.9584 36.9785 36.6577 36.3186C37.357 35.6586 38.2895 35.3031 39.2507 35.33H68.0007C68.4761 35.3447 68.9498 35.2655 69.3946 35.097C69.8395 34.9285 70.2467 34.674 70.5931 34.348C70.9395 34.0221 71.2183 33.631 71.4135 33.1972C71.6087 32.7635 71.7165 32.2955 71.7307 31.82V16.07C71.7019 15.1089 71.293 14.1985 70.5937 13.5386C69.8944 12.8786 68.9619 12.5231 68.0007 12.55H39.2507C38.772 12.5647 38.2951 12.4842 37.8477 12.3132C37.4003 12.1422 36.9913 11.8841 36.6444 11.5539C36.2975 11.2237 36.0195 10.828 35.8266 10.3896C35.6337 9.9512 35.5297 9.47889 35.5207 9.00003V-18.1C35.4919 -19.0584 35.0841 -19.9663 34.3867 -20.6244C33.6892 -21.2824 32.7592 -21.6369 31.8007 -21.61H15.1307C14.6553 -21.6246 14.1816 -21.5455 13.7368 -21.377C13.2919 -21.2085 12.8847 -20.954 12.5383 -20.628C12.1919 -20.302 11.9131 -19.911 11.7179 -19.4772C11.5227 -19.0434 11.4149 -18.5754 11.4007 -18.1Z" fill="white"/>
<path opacity="0.33" d="M486.161 69.84V91.39C486.107 92.1771 485.745 92.9113 485.153 93.4335C484.562 93.9558 483.789 94.2239 483.001 94.18H459.001C458.218 94.147 457.454 94.4214 456.871 94.9446C456.288 95.4678 455.932 96.1983 455.881 96.98V109.48C455.935 110.26 456.291 110.988 456.874 111.509C457.457 112.03 458.22 112.303 459.001 112.27H483.001C483.784 112.237 484.548 112.511 485.131 113.035C485.714 113.558 486.069 114.288 486.121 115.07V136.61C486.172 137.392 486.528 138.122 487.111 138.645C487.694 139.169 488.458 139.443 489.241 139.41H503.241C504.024 139.443 504.788 139.169 505.371 138.645C505.954 138.122 506.309 137.392 506.361 136.61V115.07C506.412 114.288 506.768 113.558 507.351 113.035C507.934 112.511 508.698 112.237 509.481 112.27H533.541C534.322 112.303 535.085 112.03 535.668 111.509C536.251 110.988 536.607 110.26 536.661 109.48V97C536.609 96.2183 536.254 95.4878 535.671 94.9646C535.088 94.4414 534.324 94.167 533.541 94.2H509.491C508.71 94.2331 507.947 93.9601 507.364 93.439C506.781 92.9179 506.425 92.1899 506.371 91.41V69.84C506.317 69.0601 505.961 68.3321 505.378 67.811C504.795 67.2899 504.032 67.0169 503.251 67.05H489.251C488.475 67.0248 487.719 67.3015 487.143 67.8218C486.567 68.3421 486.215 69.0655 486.161 69.84Z" fill="white"/>
</g>
<defs>
<linearGradient id="paint0_linear_4047_1353" x1="-71.3398" y1="57.9" x2="660.41" y2="57.9" gradientUnits="userSpaceOnUse">
<stop stop-color="#E4E6EB"/>
<stop offset="1" stop-color="#E4E6EB" stop-opacity="0"/>
</linearGradient>
</defs>
</svg>
