<svg width="98" height="98" viewBox="0 0 98 98" fill="none" xmlns="http://www.w3.org/2000/svg">
<g clip-path="url(#clip0_6364_1654)">
<path d="M59.8262 41.3525V14.3584C59.8262 12.8768 58.6251 11.6758 57.1436 11.6758L41.1204 11.6758C39.6388 11.6758 38.4378 12.8768 38.4378 14.3584V41.3525C38.4378 42.834 39.6388 44.035 41.1204 44.035H57.1436C58.6251 44.035 59.8262 42.834 59.8262 41.3525Z" stroke="#233971" stroke-width="0.797255" stroke-linejoin="round"/>
<path d="M44.9258 16.3794H53.3384" stroke="#233971" stroke-width="0.138299" stroke-miterlimit="10" stroke-linecap="round"/>
<path d="M49.1314 40.6668C49.7271 40.6668 50.21 40.1839 50.21 39.5882C50.21 38.9924 49.7271 38.5095 49.1314 38.5095C48.5357 38.5095 48.0527 38.9924 48.0527 39.5882C48.0527 40.1839 48.5357 40.6668 49.1314 40.6668Z" fill="#233971"/>
<path d="M34.215 27.8555H26.6084C25.1287 27.8555 23.9258 29.0544 23.9258 30.538V46.5613C23.9258 48.0409 25.1247 49.2439 26.6084 49.2439H35.7588C37.2384 49.2439 38.4413 50.4428 38.4413 51.9264V61.0768C38.4413 62.5565 39.6403 63.7594 41.1239 63.7594H57.1472C58.6268 63.7594 59.8297 62.5605 59.8297 61.0768V51.9264C59.8297 50.4468 61.0287 49.2439 62.5123 49.2439H71.6627C73.1423 49.2439 74.3453 48.0449 74.3453 46.5613V30.538C74.3453 29.0584 73.1463 27.8555 71.6627 27.8555H63.8997" stroke="#20ABE3" stroke-width="0.797255" stroke-linejoin="round"/>
<g clip-path="url(#clip1_6364_1654)">
<path d="M23.9326 82.4408V72.1824H27.4183C30.5978 72.1824 32.6468 74.413 32.6468 77.3198C32.6468 80.2265 30.5978 82.4408 27.4183 82.4408H23.9326ZM31.3316 77.3198C31.3316 75.1055 29.9402 73.3214 27.4165 73.3214H25.199V81.3036H27.4165C29.8931 81.3036 31.3316 79.5194 31.3316 77.3198Z" fill="#20ABE3"/>
<path d="M33.917 77.3197C33.917 74.289 35.966 72.0128 38.977 72.0128C41.9881 72.0128 44.0534 74.289 44.0534 77.3197C44.0534 80.3504 41.9899 82.6266 38.977 82.6266C35.9642 82.6266 33.917 80.3504 33.917 77.3197ZM42.7381 77.3197C42.7381 74.9196 41.2543 73.1518 38.977 73.1518C36.6997 73.1518 35.2305 74.9214 35.2305 77.3197C35.2305 79.718 36.6834 81.4876 38.977 81.4876C41.2706 81.4876 42.7381 79.7034 42.7381 77.3197Z" fill="#20ABE3"/>
<path d="M45.3066 77.3197C45.3066 74.1669 47.6147 72.0128 50.5515 72.0128C52.3559 72.0128 53.6096 72.8748 54.4194 74.043L53.365 74.6426C52.7835 73.766 51.7128 73.15 50.5515 73.15C48.3195 73.15 46.6219 74.8576 46.6219 77.3179C46.6219 79.7781 48.3195 81.4857 50.5515 81.4857C51.7128 81.4857 52.7835 80.8552 53.365 79.9932L54.4357 80.5782C53.5788 81.7627 52.3559 82.6229 50.5515 82.6229C47.6165 82.6229 45.3066 80.4688 45.3066 77.316V77.3197Z" fill="#20ABE3"/>
<path d="M58.2735 82.4406V73.3194H55.0469V72.1804H62.7846V73.3194H59.5435V82.4406H58.2753H58.2735Z" fill="#233971"/>
<path d="M64.1592 82.4408V72.1824H70.8407V73.3214H65.4274V76.6272H70.7338V77.7663H65.4274V81.3036H70.8407V82.4426H64.1592V82.4408Z" fill="#233971"/>
<path d="M72.3846 82.4408V72.1824H73.6528V81.3036H78.3922V82.4426H72.3828L72.3846 82.4408Z" fill="#233971"/>
</g>
</g>
<defs>
<clipPath id="clip0_6364_1654">
<rect width="98" height="98" fill="white"/>
</clipPath>
<clipPath id="clip1_6364_1654">
<rect width="76.8627" height="17.8232" fill="white" transform="translate(23.1445 67.6509)"/>
</clipPath>
</defs>
</svg>
