<svg width="139" height="39" viewBox="0 0 139 39" fill="none" xmlns="http://www.w3.org/2000/svg">
<g clip-path="url(#clip0_6231_1211)">
<path d="M30.3389 17.5511V6.98779H33.9282C37.2022 6.98779 39.3121 9.28473 39.3121 12.2779C39.3121 15.271 37.2022 17.5511 33.9282 17.5511H30.3389ZM37.9577 12.2779C37.9577 9.99783 36.525 8.16065 33.9263 8.16065H31.6429V16.3801H33.9263C36.4765 16.3801 37.9577 14.5429 37.9577 12.2779Z" fill="#20ABE3"/>
<path d="M40.6201 12.2777C40.6201 9.15696 42.73 6.81311 45.8305 6.81311C48.9311 6.81311 51.0578 9.15696 51.0578 12.2777C51.0578 15.3985 48.9329 17.7423 45.8305 17.7423C42.7282 17.7423 40.6201 15.3985 40.6201 12.2777ZM49.7034 12.2777C49.7034 9.80625 48.1755 7.98597 45.8305 7.98597C43.4856 7.98597 41.9726 9.80813 41.9726 12.2777C41.9726 14.7473 43.4688 16.5694 45.8305 16.5694C48.1923 16.5694 49.7034 14.7323 49.7034 12.2777Z" fill="#20ABE3"/>
<path d="M52.3486 12.2777C52.3486 9.03123 54.7253 6.81311 57.7493 6.81311C59.6074 6.81311 60.8984 7.70073 61.7323 8.90362L60.6465 9.52101C60.0477 8.61838 58.9452 7.9841 57.7493 7.9841C55.451 7.9841 53.703 9.74245 53.703 12.2758C53.703 14.8092 55.451 16.5676 57.7493 16.5676C58.9452 16.5676 60.0477 15.9183 60.6465 15.0306L61.749 15.633C60.8666 16.8528 59.6074 17.7386 57.7493 17.7386C54.7272 17.7386 52.3486 15.5204 52.3486 12.274V12.2777Z" fill="#20ABE3"/>
<path d="M65.7004 17.551V8.1587H62.3779V6.98584H70.3456V8.1587H67.0082V17.551H65.7023H65.7004Z" fill="#233971"/>
<path d="M71.7607 17.5511V6.98779H78.6408V8.16065H73.0666V11.5648H78.5308V12.7376H73.0666V16.3801H78.6408V17.5529H71.7607V17.5511Z" fill="#233971"/>
<path d="M80.2304 17.5511V6.98779H81.5363V16.3801H86.4165V17.5529H80.2285L80.2304 17.5511Z" fill="#233971"/>
<path d="M18.784 13.8522H13.4523C12.7079 13.8522 12.1035 13.2442 12.1035 12.4954V3.45784C12.1035 2.70909 12.7079 2.10107 13.4523 2.10107H18.784C19.5283 2.10107 20.1328 2.70909 20.1328 3.45784V12.4954C20.1328 13.2442 19.5283 13.8522 18.784 13.8522ZM13.4504 3.0206C13.2098 3.0206 13.0139 3.21764 13.0139 3.45784V12.4954C13.0139 12.7375 13.2098 12.9327 13.4504 12.9327H18.7821C19.0228 12.9327 19.2187 12.7356 19.2187 12.4954V3.45784C19.2187 3.21576 19.0228 3.0206 18.7821 3.0206H13.4504Z" fill="#233971"/>
<path d="M17.5171 4.21595H14.7169C14.674 4.21595 14.6367 4.1803 14.6367 4.13526C14.6367 4.09022 14.6722 4.05457 14.7169 4.05457H17.5171C17.56 4.05457 17.5973 4.09022 17.5973 4.13526C17.5973 4.1803 17.5619 4.21595 17.5171 4.21595Z" fill="#233971"/>
<path d="M16.116 12.2647C16.3138 12.2647 16.4742 12.1034 16.4742 11.9044C16.4742 11.7054 16.3138 11.5441 16.116 11.5441C15.9182 11.5441 15.7578 11.7054 15.7578 11.9044C15.7578 12.1034 15.9182 12.2647 16.116 12.2647Z" fill="#233971"/>
<path d="M18.7837 20.4541H13.452C12.7076 20.4541 12.1032 19.846 12.1032 19.0973V16.0347C12.1032 15.7926 11.9073 15.5956 11.6667 15.5956H8.62026C7.87592 15.5956 7.27148 14.9876 7.27148 14.2388V8.87556C7.27148 8.12681 7.87592 7.5188 8.62026 7.5188H11.1518V8.43832H8.62026C8.37961 8.43832 8.18373 8.63536 8.18373 8.87556V14.2388C8.18373 14.4809 8.37961 14.6761 8.62026 14.6761H11.6648C12.4092 14.6761 13.0136 15.2841 13.0136 16.0328V19.0954C13.0136 19.3375 13.2095 19.5327 13.4501 19.5327H18.7818C19.0225 19.5327 19.2184 19.3356 19.2184 19.0954V16.0328C19.2184 15.2841 19.8228 14.6761 20.5671 14.6761H23.6117C23.8523 14.6761 24.0482 14.479 24.0482 14.2388V8.87556C24.0482 8.63349 23.8523 8.43832 23.6117 8.43832H21.0279V7.5188H23.6117C24.356 7.5188 24.9605 8.12681 24.9605 8.87556V14.2388C24.9605 14.9876 24.356 15.5956 23.6117 15.5956H20.5671C20.3265 15.5956 20.1306 15.7926 20.1306 16.0347V19.0973C20.1306 19.846 19.5262 20.4541 18.7818 20.4541H18.7837Z" fill="#20ABE3"/>
</g>
<defs>
<clipPath id="clip0_6231_1211">
<rect width="79.1471" height="18.3529" fill="white" transform="translate(6.97754 2.32178)"/>
</clipPath>
</defs>
</svg>
