<svg width="35" height="49" viewBox="0 0 35 49" fill="none" xmlns="http://www.w3.org/2000/svg">
<g clip-path="url(#clip0_378_2566)">
<path d="M6.54464 5.07886H22.9395C23.114 5.10568 23.2811 5.16908 23.4302 5.26508C23.5793 5.36108 23.7072 5.48757 23.8058 5.63653L31.207 13.1717C31.3072 13.2647 31.3855 13.3794 31.4362 13.5073C31.4869 13.6353 31.5087 13.7732 31.5001 13.9109V38.7082C31.5911 39.5862 31.4821 40.4738 31.1816 41.3021C30.9275 41.8344 30.5334 42.2847 30.0432 42.6029C29.553 42.9211 28.9858 43.0948 28.4045 43.1048H6.55738C6.2405 43.0896 5.92737 43.0284 5.62745 42.9232C5.16197 42.7662 4.74 42.4983 4.3966 42.1419C4.05319 41.7855 3.79824 41.3509 3.65292 40.8741C3.51959 40.3406 3.46804 39.7894 3.50006 39.2399C3.50006 28.9812 3.50006 18.7096 3.50006 8.4379C3.48129 8.01567 3.5451 7.59386 3.68781 7.19695C3.83052 6.80005 4.04926 6.43597 4.33134 6.12586C4.61342 5.81575 4.95321 5.56579 5.33098 5.3905C5.70874 5.21522 6.11695 5.11809 6.53189 5.10478L6.54464 5.07886ZM5.19433 7.67271C5.06991 8.05242 5.02648 8.45476 5.06693 8.8529V39.8754C5.05178 40.1706 5.11617 40.4643 5.25313 40.7249C5.39009 40.9855 5.59441 41.203 5.844 41.3539C6.20574 41.5258 6.60563 41.5974 7.00324 41.5615H28.3663C28.7852 41.5615 29.187 41.392 29.4832 41.0904C29.7795 40.7888 29.9459 40.3798 29.9459 39.9532C29.9459 31.5232 29.9459 23.0889 29.9459 14.6502C28.5701 14.6502 27.1943 14.6502 25.8185 14.6502C25.2849 14.6777 24.7506 14.6119 24.2389 14.4556C23.6457 14.2384 23.131 13.8433 22.7626 13.3224C22.3942 12.8015 22.1894 12.1792 22.1752 11.5376C22.1752 9.92936 22.1752 8.33413 22.1752 6.72594H6.64656C6.34729 6.71773 6.05188 6.79627 5.79477 6.95241C5.53765 7.10855 5.32942 7.33587 5.19433 7.60786V7.67271ZM23.7293 7.85428C23.7293 9.0734 23.7293 10.2925 23.7293 11.5246C23.7422 11.9285 23.9065 12.3121 24.1884 12.5967C24.4703 12.8813 24.8484 13.0452 25.2453 13.055C26.4427 13.055 27.6402 13.055 28.8376 13.055L23.7293 7.85428Z" fill="#0052A8"/>
<path d="M11.5892 17.9184C11.8285 17.7668 12.1131 17.707 12.3918 17.7498C13.4236 17.7498 14.4427 17.7498 15.4618 17.7498C16.3226 17.8235 17.1356 18.1834 17.7756 18.774C18.4155 19.3647 18.8469 20.1532 19.0032 21.0181C19.0931 21.5702 19.067 22.1354 18.9264 22.6764C18.7859 23.2175 18.5342 23.722 18.1879 24.1566C17.741 24.7079 17.1618 25.1323 16.5064 25.3887L20.0478 30.4467L22.2898 27.5935C22.3749 27.4742 22.4888 27.3793 22.6205 27.3179C22.7522 27.2566 22.8971 27.2309 23.0414 27.2433C23.2349 27.2721 23.4111 27.3728 23.5358 27.5262C23.6605 27.6795 23.725 27.8744 23.7166 28.0733C23.685 28.2838 23.5968 28.4814 23.4618 28.644C22.6338 29.6815 21.8058 30.7321 20.9905 31.7826L23.5383 35.388C23.6165 35.4847 23.6739 35.5969 23.7068 35.7176C23.7397 35.8382 23.7474 35.9645 23.7293 36.0884C23.6993 36.2451 23.6234 36.3888 23.5117 36.5008C23.4 36.6127 23.2576 36.6877 23.1032 36.7157C22.9489 36.7438 22.7898 36.7236 22.647 36.658C22.5041 36.5923 22.384 36.4842 22.3026 36.3478C21.5383 35.2583 20.7739 34.1559 19.9969 33.0665L17.4491 36.3867C17.3654 36.5035 17.2533 36.5961 17.1237 36.6552C16.9941 36.7144 16.8516 36.7381 16.7102 36.7239C16.5108 36.6979 16.329 36.5941 16.2031 36.4345C16.0772 36.2749 16.017 36.0718 16.0351 35.8679C16.0744 35.6212 16.1905 35.3939 16.3663 35.2194L19.1051 31.7437C17.7038 29.7075 16.2644 27.6843 14.8503 25.6481H12.9141V29.5389C12.9227 29.6747 12.9007 29.8106 12.85 29.9365C12.7992 30.0623 12.7209 30.1747 12.6211 30.2652C12.4655 30.3931 12.2675 30.4551 12.0682 30.4382C11.8688 30.4213 11.6836 30.3268 11.551 30.1744C11.4129 29.9936 11.3449 29.7674 11.3599 29.5389V18.6966C11.3318 18.5577 11.3381 18.4139 11.3781 18.278C11.4181 18.1422 11.4907 18.0186 11.5892 17.9184ZM12.8631 19.3321V24.0788C13.6656 24.0788 14.4682 24.0788 15.2707 24.0788C15.6594 24.067 16.039 23.9564 16.375 23.7571C16.711 23.5577 16.9926 23.276 17.1943 22.9375C17.4061 22.5773 17.5203 22.1664 17.5252 21.7467C17.5301 21.3269 17.4256 20.9133 17.2222 20.5481C17.0189 20.1829 16.7241 19.8791 16.3679 19.6678C16.0116 19.4564 15.6066 19.3451 15.1943 19.345L12.8631 19.3321Z" fill="#0052A8"/>
</g>
<defs>
<clipPath id="clip0_378_2566">
<rect width="28" height="38" fill="white" transform="translate(3.5 5.07886)"/>
</clipPath>
</defs>
</svg>
