<svg width="33" height="21" viewBox="0 0 33 21" fill="none" xmlns="http://www.w3.org/2000/svg">
<path d="M14.0535 20.9L9.36869 14.312C8.84165 14.3706 8.29509 14.3999 7.72901 14.3999H2.22437V20.9H0.0576469V0.404023H7.72901C10.3447 0.404023 12.3943 1.02866 13.8778 2.27794C15.3613 3.52722 16.1031 5.24498 16.1031 7.43122C16.1031 9.03186 15.6932 10.3885 14.8733 11.5011C14.073 12.5943 12.9213 13.3848 11.4183 13.8728L16.4252 20.9H14.0535ZM7.67045 12.5552C9.70053 12.5552 11.2524 12.1063 12.326 11.2083C13.3996 10.3104 13.9364 9.05138 13.9364 7.43122C13.9364 5.77202 13.3996 4.50322 12.326 3.62482C11.2524 2.7269 9.70053 2.27794 7.67045 2.27794H2.22437V12.5552H7.67045ZM30.5866 20.9L25.6969 14.4584L20.7778 20.9H18.4354L24.5257 12.9944L18.7282 5.49874H21.0706L25.6969 11.5304L30.3231 5.49874H32.6069L26.8095 12.9944L32.9583 20.9H30.5866Z" fill="#1A3C6F"/>
</svg>
