<svg width="64" height="64" viewBox="0 0 64 64" fill="none" xmlns="http://www.w3.org/2000/svg">
<rect width="64" height="64" fill="white"/>
<path d="M43.4609 35.9161V6.885C43.4609 5.29166 42.1693 4 40.5759 4L23.3436 4C21.7503 4 20.4586 5.29166 20.4586 6.885L20.4586 35.9161C20.4586 37.5094 21.7503 38.8011 23.3436 38.8011H40.5759C42.1693 38.8011 43.4609 37.5094 43.4609 35.9161Z" stroke="#233971" stroke-width="0.520657" stroke-linejoin="round"/>
<path d="M27.4336 9.05859H36.481" stroke="#233971" stroke-width="0.090318" stroke-miterlimit="10" stroke-linecap="round"/>
<path d="M31.9608 35.1785C32.6015 35.1785 33.1209 34.6591 33.1209 34.0184C33.1209 33.3778 32.6015 32.8584 31.9608 32.8584C31.3201 32.8584 30.8008 33.3778 30.8008 34.0184C30.8008 34.6591 31.3201 35.1785 31.9608 35.1785Z" fill="#233971"/>
<path d="M15.9172 21.4004H7.73656C6.14528 21.4004 4.85156 22.6898 4.85156 24.2854V41.5177C4.85156 43.109 6.14097 44.4027 7.73656 44.4027H17.5775C19.1687 44.4027 20.4625 45.6921 20.4625 47.2877V57.1286C20.4625 58.7199 21.7519 60.0136 23.3474 60.0136H40.5798C42.1711 60.0136 43.4648 58.7242 43.4648 57.1286V47.2877C43.4648 45.6965 44.7542 44.4027 46.3498 44.4027H56.1907C57.782 44.4027 59.0757 43.1133 59.0757 41.5177V24.2854C59.0757 22.6941 57.7863 21.4004 56.1907 21.4004H47.8419" stroke="#20ABE3" stroke-width="0.520657" stroke-linejoin="round"/>
</svg>
